<svg width="39" height="23" viewBox="0 0 39 23" fill="none" xmlns="http://www.w3.org/2000/svg">
<path d="M31.1383 -6.58184e-07C29.9005 -7.64075e-07 28.7598 0.666999 28.2259 1.702L24.7795 8.234C24.4397 8.878 24.2698 9.568 24.2698 10.281L24.2698 20.7C24.2698 21.965 25.3619 23 26.6968 23L36.405 23C37.7399 23 38.832 21.965 38.832 20.7L38.832 11.5C38.832 10.235 37.7399 9.2 36.405 9.2L31.5509 9.2L34.0508 4.462C35.1429 2.415 33.5654 -4.50555e-07 31.1383 -6.58184e-07ZM6.86789 -2.73447e-06C5.6301 -2.84037e-06 4.48939 0.666997 3.95544 1.702L0.509042 8.234C0.169256 8.878 -0.000635854 9.568 -0.000635918 10.281L-0.000636849 20.7C-0.000636962 21.965 1.09153 23 2.4264 23L12.1346 23C13.4694 23 14.5616 21.965 14.5616 20.7L14.5616 11.5C14.5616 10.235 13.4694 9.2 12.1346 9.2L7.28049 9.2L9.78034 4.462C10.8725 2.415 9.29493 -2.52685e-06 6.86789 -2.73447e-06Z" fill="#E9EDF7"/>
</svg>
